<?xml version="1.0" encoding="UTF-8"?><svg xmlns="http://www.w3.org/2000/svg" viewBox="0 0 704.93 139.2"><defs><style>.cls-1{letter-spacing:-.09em;}.cls-2{fill:none;stroke-linecap:round;stroke-linejoin:round;}.cls-2,.cls-3{stroke:#fff;}.cls-4{fill:#fff;font-size:32.04px;}.cls-4,.cls-3,.cls-5{font-family:Stormfaze-Regular, Stormfaze;}.cls-3{fill:#2d2e82;stroke-miterlimit:10;stroke-width:.75px;}.cls-3,.cls-5{font-size:117.09px;}.cls-6{letter-spacing:.11em;}.cls-7{letter-spacing:.06em;}.cls-8{letter-spacing:.06em;}.cls-9{letter-spacing:-.04em;}.cls-10{letter-spacing:0em;}.cls-11{letter-spacing:.1em;}.cls-12{letter-spacing:.1em;}</style></defs><g id="Layer_7"><text class="cls-3" transform="translate(0 94.86) scale(.98 1)"><tspan x="0" y="0">GUI</tspan><tspan class="cls-1" x="191.56" y="0">T</tspan><tspan x="249.87" y="0">AR</tspan><tspan class="cls-9" x="410.05" y="0">A</tspan><tspan x="486.86" y="0">OKE</tspan></text><text class="cls-5" transform="translate(0 94.86) scale(.98 1)"><tspan x="0" y="0">GUI</tspan><tspan class="cls-1" x="191.56" y="0">T</tspan><tspan x="249.87" y="0">AR</tspan><tspan class="cls-9" x="410.05" y="0">A</tspan><tspan x="486.86" y="0">OKE</tspan></text><g><path class="cls-2" d="M63.65,12.9v21.43h-22.48c-4.97,0-8.54,1.09-10.72,3.28-2.18,2.19-3.27,6.13-3.27,11.83v9.37c0,5.7,1.09,9.64,3.27,11.83,2.18,2.19,5.75,3.28,10.72,3.28h2.06c1.15,0,1.72-.66,1.72-1.99v-18.85h21.1v34.42c0,4.92-2.37,7.38-7.11,7.38h-17.66c-6.27,0-11.64-.8-16.11-2.4-4.47-1.6-8.12-3.92-10.95-6.97-2.83-3.04-4.91-6.77-6.25-11.18-1.34-4.41-2.01-9.43-2.01-15.05v-10.77c0-5.62,.67-10.64,2.01-15.05,1.34-4.41,3.42-8.14,6.25-11.18,2.83-3.04,6.48-5.37,10.95-6.97,4.47-1.6,9.84-2.4,16.11-2.4h22.36Z"/><path class="cls-2" d="M101.61,12.9v56.09c0,2.89,1.34,4.33,4.01,4.33h12.5c2.67,0,4.01-1.44,4.01-4.33V12.9h21.67V79.29c0,10.38-5.05,15.57-15.14,15.57h-33.6c-10.09,0-15.14-5.19-15.14-15.57V12.9h21.67Z"/><path class="cls-2" d="M180.05,12.9V94.86h-21.67V12.9h21.67Z"/><path class="cls-2" d="M252.07,12.9v21.43h-61.47V12.9h61.47Zm-19.84,25.06v56.91h-21.67V37.95h21.67Z"/><path class="cls-2" d="M291.98,12.9c1.99,0,3.29,.86,3.9,2.58l26.38,79.39h-47.48l5.39-21.54h12.61l-8.83-30.68h-.46l-13.88,52.22h-23.05l24.54-79.39c.53-1.72,1.76-2.58,3.67-2.58h17.2Z"/><path class="cls-2" d="M371.57,12.9c14.45,0,21.68,7.26,21.68,21.78v4.8c0,3.9-.48,6.77-1.43,8.61-.96,1.83-2.43,3.34-4.42,4.51,2.22,.86,4.07,2.44,5.56,4.74,1.49,2.3,2.24,5.33,2.24,9.07v28.45h-21.56v-27.52c0-1.17-.25-2.17-.75-2.99-.5-.82-1.47-1.23-2.92-1.23h-13.07v-18.5h12.16c1.53,0,2.54-.41,3.04-1.23,.5-.82,.75-1.81,.75-2.99v-2.46c0-2.97-1.38-4.45-4.13-4.45h-13.65c-1.15,0-1.72,.66-1.72,1.99v59.37h-21.67V20.16c0-4.84,2.37-7.26,7.11-7.26h32.8Z"/><path class="cls-2" d="M448.86,12.9c1.99,0,3.29,.86,3.9,2.58l26.38,79.39h-47.48l5.39-21.54h12.61l-8.83-30.68h-.46l-13.88,52.22h-23.05l24.54-79.39c.53-1.72,1.76-2.58,3.67-2.58h17.2Z"/><path class="cls-2" d="M482.81,47.32c0-5.62,.61-10.64,1.83-15.05,1.22-4.41,3.21-8.14,5.96-11.18,2.75-3.04,6.33-5.37,10.72-6.97,4.4-1.6,9.73-2.4,16-2.4s11.6,.8,16,2.4c4.4,1.6,7.97,3.92,10.72,6.97,2.75,3.04,4.74,6.77,5.96,11.18,1.22,4.41,1.83,9.43,1.83,15.05v13.11c0,5.62-.61,10.64-1.83,15.05-1.22,4.41-3.21,8.14-5.96,11.18-2.75,3.04-6.33,5.37-10.72,6.97-4.4,1.6-9.73,2.4-16,2.4s-11.6-.8-16-2.4-7.97-3.92-10.72-6.97c-2.75-3.04-4.74-6.77-5.96-11.18-1.22-4.41-1.83-9.43-1.83-15.05v-13.11Zm21.67,12.18c0,2.81,.21,5.19,.63,7.14,.42,1.95,1.13,3.51,2.12,4.68,.99,1.17,2.31,2.01,3.96,2.52,1.64,.51,3.69,.76,6.14,.76s4.49-.25,6.14-.76c1.64-.51,2.96-1.35,3.96-2.52,.99-1.17,1.7-2.73,2.12-4.68,.42-1.95,.63-4.33,.63-7.14v-11.24c0-2.81-.21-5.19-.63-7.14-.42-1.95-1.13-3.51-2.12-4.68-.99-1.17-2.31-2.01-3.96-2.52-1.65-.51-3.69-.76-6.14-.76s-4.49,.25-6.14,.76c-1.65,.51-2.96,1.35-3.96,2.52-.99,1.17-1.7,2.73-2.12,4.68-.42,1.95-.63,4.33-.63,7.14v11.24Z"/><path class="cls-2" d="M587.06,12.9V94.86h-21.67V12.9h21.67Zm40.94,0l-14.22,39.11,15.94,42.86h-22.48l-10.9-28.45c-.84-2.18-2.26-3.28-4.24-3.28h-1.49v-18.5h1.72c1.91,0,3.25-1.09,4.01-3.28l9.63-28.45h22.02Z"/><path class="cls-2" d="M692.79,12.9v21.43h-29.01c-1.15,0-1.72,.66-1.72,1.99v35.01c0,1.33,.57,1.99,1.72,1.99h29.01v21.54h-45.3c-4.74,0-7.11-2.46-7.11-7.38V20.16c0-4.84,2.37-7.26,7.11-7.26h45.3Zm-.23,30.8v19.44h-26.95v-19.44h26.95Z"/></g></g><g id="Layer_11"><text class="cls-4" transform="translate(5.96 136.72)"><tspan class="cls-12" x="0" y="0">KAR</tspan><tspan class="cls-7" x="74.45" y="0">A</tspan><tspan class="cls-12" x="98.67" y="0">OKE... WITH STRINGS </tspan><tspan class="cls-10" x="504.36" y="0">A</tspan><tspan class="cls-6" x="526.84" y="0">T</tspan><tspan class="cls-10" x="549.21" y="0">T</tspan><tspan class="cls-8" x="568.36" y="0">A</tspan><tspan class="cls-11" x="592.42" y="0">CHED</tspan></text></g></svg>