<?xml version="1.0" encoding="UTF-8"?><svg xmlns="http://www.w3.org/2000/svg" viewBox="0 0 704.93 139.2"><defs><style>.cls-1{fill:#fff;}.cls-2{stroke:#fff;stroke-linecap:round;stroke-linejoin:round;stroke-width:2px;}</style></defs><g id="Layer_7"><g><path class="cls-2" d="M63.65,12.9v21.43h-22.48c-4.97,0-8.54,1.09-10.72,3.28-2.18,2.19-3.27,6.13-3.27,11.83v9.37c0,5.7,1.09,9.64,3.27,11.83,2.18,2.19,5.75,3.28,10.72,3.28h2.06c1.15,0,1.72-.66,1.72-1.99v-18.85h21.1v34.42c0,4.92-2.37,7.38-7.11,7.38h-17.66c-6.27,0-11.64-.8-16.11-2.4-4.47-1.6-8.12-3.92-10.95-6.97-2.83-3.04-4.91-6.77-6.25-11.18-1.34-4.41-2.01-9.43-2.01-15.05v-10.77c0-5.62,.67-10.64,2.01-15.05,1.34-4.41,3.42-8.14,6.25-11.18,2.83-3.04,6.48-5.37,10.95-6.97,4.47-1.6,9.84-2.4,16.11-2.4h22.36Z"/><path class="cls-2" d="M101.61,12.9v56.09c0,2.89,1.34,4.33,4.01,4.33h12.5c2.67,0,4.01-1.44,4.01-4.33V12.9h21.67V79.29c0,10.38-5.05,15.57-15.14,15.57h-33.6c-10.09,0-15.14-5.19-15.14-15.57V12.9h21.67Z"/><path class="cls-2" d="M180.05,12.9V94.86h-21.67V12.9h21.67Z"/><path class="cls-2" d="M252.07,12.9v21.43h-61.47V12.9h61.47Zm-19.84,25.06v56.91h-21.67V37.95h21.67Z"/><path class="cls-2" d="M291.98,12.9c1.99,0,3.29,.86,3.9,2.58l26.38,79.39h-47.48l5.39-21.54h12.61l-8.83-30.68h-.46l-13.88,52.22h-23.05l24.54-79.39c.53-1.72,1.76-2.58,3.67-2.58h17.2Z"/><path class="cls-2" d="M371.57,12.9c14.45,0,21.68,7.26,21.68,21.78v4.8c0,3.9-.48,6.77-1.43,8.61-.96,1.83-2.43,3.34-4.42,4.51,2.22,.86,4.07,2.44,5.56,4.74,1.49,2.3,2.24,5.33,2.24,9.07v28.45h-21.56v-27.52c0-1.17-.25-2.17-.75-2.99-.5-.82-1.47-1.23-2.92-1.23h-13.07v-18.5h12.16c1.53,0,2.54-.41,3.04-1.23,.5-.82,.75-1.81,.75-2.99v-2.46c0-2.97-1.38-4.45-4.13-4.45h-13.65c-1.15,0-1.72,.66-1.72,1.99v59.37h-21.67V20.16c0-4.84,2.37-7.26,7.11-7.26h32.8Z"/><path class="cls-2" d="M448.86,12.9c1.99,0,3.29,.86,3.9,2.58l26.38,79.39h-47.48l5.39-21.54h12.61l-8.83-30.68h-.46l-13.88,52.22h-23.05l24.54-79.39c.53-1.72,1.76-2.58,3.67-2.58h17.2Z"/><path class="cls-2" d="M482.81,47.32c0-5.62,.61-10.64,1.83-15.05,1.22-4.41,3.21-8.14,5.96-11.18,2.75-3.04,6.33-5.37,10.72-6.97,4.4-1.6,9.73-2.4,16-2.4s11.6,.8,16,2.4c4.4,1.6,7.97,3.92,10.72,6.97,2.75,3.04,4.74,6.77,5.96,11.18,1.22,4.41,1.83,9.43,1.83,15.05v13.11c0,5.62-.61,10.64-1.83,15.05-1.22,4.41-3.21,8.14-5.96,11.18-2.75,3.04-6.33,5.37-10.72,6.97-4.4,1.6-9.73,2.4-16,2.4s-11.6-.8-16-2.4-7.97-3.92-10.72-6.97c-2.75-3.04-4.74-6.77-5.96-11.18-1.22-4.41-1.83-9.43-1.83-15.05v-13.11Zm21.67,12.18c0,2.81,.21,5.19,.63,7.14,.42,1.95,1.13,3.51,2.12,4.68,.99,1.17,2.31,2.01,3.96,2.52,1.64,.51,3.69,.76,6.14,.76s4.49-.25,6.14-.76c1.64-.51,2.96-1.35,3.96-2.52,.99-1.17,1.7-2.73,2.12-4.68,.42-1.95,.63-4.33,.63-7.14v-11.24c0-2.81-.21-5.19-.63-7.14-.42-1.95-1.13-3.51-2.12-4.68-.99-1.17-2.31-2.01-3.96-2.52-1.65-.51-3.69-.76-6.14-.76s-4.49,.25-6.14,.76c-1.65,.51-2.96,1.35-3.96,2.52-.99,1.17-1.7,2.73-2.12,4.68-.42,1.95-.63,4.33-.63,7.14v11.24Z"/><path class="cls-2" d="M587.06,12.9V94.86h-21.67V12.9h21.67Zm40.94,0l-14.22,39.11,15.94,42.86h-22.48l-10.9-28.45c-.84-2.18-2.26-3.28-4.24-3.28h-1.49v-18.5h1.72c1.91,0,3.25-1.09,4.01-3.28l9.63-28.45h22.02Z"/><path class="cls-2" d="M692.79,12.9v21.43h-29.01c-1.15,0-1.72,.66-1.72,1.99v35.01c0,1.33,.57,1.99,1.72,1.99h29.01v21.54h-45.3c-4.74,0-7.11-2.46-7.11-7.38V20.16c0-4.84,2.37-7.26,7.11-7.26h45.3Zm-.23,30.8v19.44h-26.95v-19.44h26.95Z"/></g></g><g id="Layer_11"><g><path class="cls-1" d="M14.13,114.3v22.42h-6.05v-22.42h6.05Zm11.44,0l-3.97,10.7,4.45,11.73h-6.28l-3.04-7.78c-.24-.6-.63-.9-1.19-.9h-.42v-5.06h.48c.53,0,.91-.3,1.12-.9l2.69-7.78h6.15Z"/><path class="cls-1" d="M43.38,114.3c.56,0,.92,.24,1.09,.71l7.37,21.72h-13.26l1.5-5.89h3.52l-2.47-8.39h-.13l-3.88,14.29h-6.44l6.86-21.72c.15-.47,.49-.71,1.03-.71h4.8Z"/><path class="cls-1" d="M68.82,114.3c4.04,0,6.05,1.99,6.05,5.96v1.31c0,1.07-.13,1.85-.4,2.35-.27,.5-.68,.91-1.23,1.23,.62,.23,1.14,.67,1.55,1.3,.42,.63,.62,1.46,.62,2.48v7.78h-6.02v-7.53c0-.32-.07-.59-.21-.82s-.41-.34-.82-.34h-3.65v-5.06h3.4c.43,0,.71-.11,.85-.34,.14-.22,.21-.5,.21-.82v-.67c0-.81-.38-1.22-1.15-1.22h-3.81c-.32,0-.48,.18-.48,.54v16.24h-6.05v-20.44c0-1.32,.66-1.99,1.99-1.99h9.16Z"/><path class="cls-1" d="M93.61,114.3c.56,0,.92,.24,1.09,.71l7.37,21.72h-13.26l1.5-5.89h3.52l-2.47-8.39h-.13l-3.88,14.29h-6.44l6.86-21.72c.15-.47,.49-.71,1.03-.71h4.8Z"/><path class="cls-1" d="M106.3,123.72c0-1.54,.17-2.91,.51-4.12,.34-1.21,.9-2.23,1.67-3.06,.77-.83,1.77-1.47,3-1.91,1.23-.44,2.72-.66,4.47-.66s3.24,.22,4.47,.66c1.23,.44,2.23,1.07,3,1.91s1.32,1.85,1.67,3.06,.51,2.58,.51,4.12v3.59c0,1.54-.17,2.91-.51,4.12s-.9,2.23-1.67,3.06c-.77,.83-1.77,1.47-3,1.91-1.23,.44-2.72,.66-4.47,.66s-3.24-.22-4.47-.66c-1.23-.44-2.23-1.07-3-1.91-.77-.83-1.32-1.85-1.67-3.06-.34-1.21-.51-2.58-.51-4.12v-3.59Zm6.05,3.33c0,.77,.06,1.42,.18,1.95,.12,.53,.32,.96,.59,1.28s.65,.55,1.11,.69c.46,.14,1.03,.21,1.71,.21s1.25-.07,1.71-.21c.46-.14,.83-.37,1.11-.69,.28-.32,.47-.75,.59-1.28,.12-.53,.18-1.19,.18-1.95v-3.08c0-.77-.06-1.42-.18-1.95-.12-.53-.31-.96-.59-1.28-.28-.32-.65-.55-1.11-.69-.46-.14-1.03-.21-1.71-.21s-1.25,.07-1.71,.21c-.46,.14-.83,.37-1.11,.69s-.48,.75-.59,1.28c-.12,.53-.18,1.19-.18,1.95v3.08Z"/><path class="cls-1" d="M138.62,114.3v22.42h-6.05v-22.42h6.05Zm11.44,0l-3.97,10.7,4.45,11.73h-6.28l-3.04-7.78c-.24-.6-.63-.9-1.19-.9h-.42v-5.06h.48c.53,0,.91-.3,1.12-.9l2.69-7.78h6.15Z"/><path class="cls-1" d="M171.36,114.3v5.86h-8.11c-.32,0-.48,.18-.48,.54v9.58c0,.36,.16,.54,.48,.54h8.11v5.89h-12.65c-1.32,0-1.99-.67-1.99-2.02v-18.42c0-1.32,.66-1.99,1.99-1.99h12.65Zm-.06,8.43v5.32h-7.53v-5.32h7.53Z"/><path class="cls-1" d="M183.98,130.83v5.89h-5.41v-5.89h5.41Z"/><path class="cls-1" d="M196.83,130.83v5.89h-5.41v-5.89h5.41Z"/><path class="cls-1" d="M209.67,130.83v5.89h-5.41v-5.89h5.41Z"/><path class="cls-1" d="M237.41,114.3v15.35c0,.79,.37,1.19,1.12,1.19h2.21c.75,0,1.12-.4,1.12-1.19v-15.35h5.83v15.35c0,.79,.37,1.19,1.12,1.19h2.21c.75,0,1.12-.4,1.12-1.19v-15.35h6.05v18.16c0,2.84-1.41,4.26-4.23,4.26h-6.38c-.79,0-1.42-.18-1.87-.53-.46-.35-.77-.74-.95-1.17-.17,.43-.49,.82-.95,1.17-.46,.35-1.08,.53-1.87,.53h-6.38c-2.82,0-4.23-1.42-4.23-4.26v-18.16h6.05Z"/><path class="cls-1" d="M271.53,114.3v22.42h-6.05v-22.42h6.05Z"/><path class="cls-1" d="M294.85,114.3v5.86h-17.17v-5.86h17.17Zm-5.54,6.86v15.57h-6.05v-15.57h6.05Z"/><path class="cls-1" d="M307.06,114.3v22.42h-6.05v-22.42h6.05Zm12.43,0v22.42h-6.05v-8.68h-5.38v-5.32h5.38v-8.43h6.05Z"/><path class="cls-1" d="M357.16,114.3v5.86h-9.39c-.77,0-1.15,.41-1.15,1.22v.67c0,.77,.35,1.15,1.06,1.15h4.87c1.96,0,3.37,.45,4.21,1.36s1.27,2.21,1.27,3.89v2.31c0,3.97-2.02,5.96-6.05,5.96h-10.67v-5.89h9.87c.77,0,1.15-.41,1.15-1.22v-.67c0-.38-.08-.67-.22-.86-.15-.19-.43-.29-.83-.29h-5.19c-.92,0-1.7-.12-2.35-.37-.65-.25-1.19-.59-1.6-1.03-.42-.44-.72-.95-.91-1.54-.19-.59-.29-1.22-.29-1.91v-2.69c0-3.97,2.02-5.96,6.05-5.96h10.19Z"/><path class="cls-1" d="M380.93,114.3v5.86h-17.17v-5.86h17.17Zm-5.54,6.86v15.57h-6.05v-15.57h6.05Z"/><path class="cls-1" d="M398.23,114.3c4.04,0,6.05,1.99,6.05,5.96v1.31c0,1.07-.13,1.85-.4,2.35-.27,.5-.68,.91-1.23,1.23,.62,.23,1.14,.67,1.55,1.3,.42,.63,.62,1.46,.62,2.48v7.78h-6.02v-7.53c0-.32-.07-.59-.21-.82s-.41-.34-.82-.34h-3.65v-5.06h3.4c.43,0,.71-.11,.85-.34,.14-.22,.21-.5,.21-.82v-.67c0-.81-.38-1.22-1.15-1.22h-3.81c-.32,0-.48,.18-.48,.54v16.24h-6.05v-20.44c0-1.32,.66-1.99,1.99-1.99h9.16Z"/><path class="cls-1" d="M418,114.3v22.42h-6.05v-22.42h6.05Z"/><path class="cls-1" d="M430.26,114.3c1.03,0,1.78,.47,2.28,1.41l4.8,9.19h.13v-10.6h5.89v21.05c0,.38-.11,.71-.32,.98-.21,.27-.5,.4-.86,.4h-2.85c-.98,0-1.74-.47-2.27-1.41l-5.67-9.74h-.13v11.15h-5.89v-21.05c0-.38,.11-.71,.32-.98,.21-.27,.5-.4,.87-.4h3.72Z"/><path class="cls-1" d="M466.4,114.3v5.86h-6.28c-1.39,0-2.39,.3-3,.9-.61,.6-.91,1.68-.91,3.24v2.56c0,1.56,.3,2.64,.91,3.24,.61,.6,1.61,.9,3,.9h.58c.32,0,.48-.18,.48-.54v-5.16h5.89v9.42c0,1.35-.66,2.02-1.99,2.02h-4.93c-1.75,0-3.25-.22-4.5-.66-1.25-.44-2.27-1.07-3.06-1.91-.79-.83-1.37-1.85-1.75-3.06-.37-1.21-.56-2.58-.56-4.12v-2.95c0-1.54,.19-2.91,.56-4.12,.37-1.21,.96-2.23,1.75-3.06,.79-.83,1.81-1.47,3.06-1.91,1.25-.44,2.75-.66,4.5-.66h6.25Z"/><path class="cls-1" d="M490.14,114.3v5.86h-9.39c-.77,0-1.15,.41-1.15,1.22v.67c0,.77,.35,1.15,1.06,1.15h4.87c1.96,0,3.37,.45,4.21,1.36s1.27,2.21,1.27,3.89v2.31c0,3.97-2.02,5.96-6.05,5.96h-10.67v-5.89h9.87c.77,0,1.15-.41,1.15-1.22v-.67c0-.38-.08-.67-.22-.86-.15-.19-.43-.29-.83-.29h-5.19c-.92,0-1.7-.12-2.35-.37-.65-.25-1.19-.59-1.6-1.03-.42-.44-.72-.95-.91-1.54-.19-.59-.29-1.22-.29-1.91v-2.69c0-3.97,2.02-5.96,6.05-5.96h10.19Z"/><path class="cls-1" d="M523.52,114.3c.56,0,.92,.24,1.09,.71l7.37,21.72h-13.26l1.5-5.89h3.52l-2.47-8.39h-.13l-3.88,14.29h-6.44l6.86-21.72c.15-.47,.49-.71,1.03-.71h4.8Z"/><path class="cls-1" d="M550.81,114.3v5.86h-17.17v-5.86h17.17Zm-5.54,6.86v15.57h-6.05v-15.57h6.05Z"/><path class="cls-1" d="M573.17,114.3v5.86h-17.17v-5.86h17.17Zm-5.54,6.86v15.57h-6.05v-15.57h6.05Z"/><path class="cls-1" d="M587.52,114.3c.56,0,.92,.24,1.09,.71l7.37,21.72h-13.26l1.5-5.89h3.52l-2.47-8.39h-.13l-3.88,14.29h-6.44l6.86-21.72c.15-.47,.49-.71,1.03-.71h4.8Z"/><path class="cls-1" d="M615.01,114.3v5.86h-5c-1.39,0-2.39,.3-3,.9-.61,.6-.91,1.68-.91,3.24v2.4c0,1.56,.3,2.64,.91,3.24,.61,.6,1.61,.9,3,.9h5v5.89h-5.09c-1.75,0-3.25-.22-4.5-.66-1.25-.44-2.27-1.07-3.06-1.91-.79-.83-1.37-1.85-1.75-3.06-.37-1.21-.56-2.58-.56-4.12v-2.95c0-1.54,.19-2.91,.56-4.12,.37-1.21,.96-2.23,1.75-3.06,.79-.83,1.81-1.47,3.06-1.91,1.25-.44,2.75-.66,4.5-.66h5.09Z"/><path class="cls-1" d="M628.11,114.3v22.42h-6.05v-22.42h6.05Zm12.43,0v22.42h-6.05v-8.68h-5.38v-5.32h5.38v-8.43h6.05Z"/><path class="cls-1" d="M662.55,114.3v5.86h-8.11c-.32,0-.48,.18-.48,.54v9.58c0,.36,.16,.54,.48,.54h8.11v5.89h-12.65c-1.32,0-1.99-.67-1.99-2.02v-18.42c0-1.32,.66-1.99,1.99-1.99h12.65Zm-.06,8.43v5.32h-7.53v-5.32h7.53Z"/><path class="cls-1" d="M678.05,114.3c1.75,0,3.25,.22,4.5,.66,1.25,.44,2.27,1.07,3.06,1.91s1.37,1.85,1.75,3.06c.37,1.21,.56,2.58,.56,4.12v2.95c0,1.54-.19,2.91-.56,4.12-.37,1.21-.96,2.23-1.75,3.06-.79,.83-1.81,1.47-3.06,1.91-1.25,.44-2.75,.66-4.5,.66h-6.31c-1.32,0-1.99-.66-1.99-1.99v-18.45c0-1.32,.66-1.99,1.99-1.99h6.31Zm-2.24,15.99c0,.36,.16,.54,.48,.54h1.67c1.39,0,2.39-.3,3-.9,.61-.6,.91-1.68,.91-3.24v-2.4c0-1.56-.3-2.64-.91-3.24-.61-.6-1.61-.9-3-.9h-1.67c-.32,0-.48,.18-.48,.54v9.58Z"/></g></g></svg>